<?xml version="1.0" encoding="utf-8"?>
<svg xmlns="http://www.w3.org/2000/svg" width="450" height="380">
<style type="text/css"><![CDATA[
	g.testcase .header {font-weight: bold;}
	g.testcase .value {opacity: 0;}
	g.testcase:hover .value {opacity: 1;}
	g.bar .value {font-family: monospace; text-anchor: end}
	.level {stroke-dasharray: 1,2;}
]]></style>
<g class="testcase">
<text class="header" x="10" y="20">encode</text>
<text class="label" font-weight="normal" x="10" y="40">json</text>
<g class="bar">
<rect fill="#ffffff" x="125" height="20" y="40" width="300"/>
<rect fill="#9BC53D" x="125" height="12" y="30" width="285"/>
<text class="value" x="425" font-family="monospace" text-anchor="end" y="40">325309</text>
</g>
<text class="label" font-weight="normal" x="10" y="60">protocol-buffers</text>
<g class="bar">
<rect fill="#ffffff" x="125" height="20" y="60" width="300"/>
<rect fill="#E55934" x="125" height="12" y="50" width="300"/>
<text class="value" x="425" font-family="monospace" text-anchor="end" y="60">341530</text>
</g>
<text class="label" font-weight="normal" x="10" y="80">protobufjs</text>
<g class="bar">
<rect fill="#ffffff" x="125" height="20" y="80" width="300"/>
<rect fill="#5BC0EB" x="125" height="12" y="70" width="51"/>
<text class="value" x="425" font-family="monospace" text-anchor="end" y="80">57813</text>
</g>
<text class="label" font-weight="normal" x="10" y="100">node-protobuf</text>
<g class="bar">
<rect fill="#ffffff" x="125" height="20" y="100" width="300"/>
<rect fill="#FDE74C" x="125" height="12" y="90" width="51"/>
<text class="value" x="425" font-family="monospace" text-anchor="end" y="100">56367</text>
</g>
<line class="level" x1="185" x2="185" y1="20" y2="110" stroke-width="1" stroke="silver"/>
<line class="level" x1="245" x2="245" y1="20" y2="110" stroke-width="1" stroke="silver"/>
<line class="level" x1="305" x2="305" y1="20" y2="110" stroke-width="1" stroke="silver"/>
<line class="level" x1="365" x2="365" y1="20" y2="110" stroke-width="1" stroke="silver"/>
<line class="level" x1="425" x2="425" y1="20" y2="110" stroke-width="1" stroke="silver"/>
</g>
<g class="testcase">
<text class="header" x="10" y="140">decode</text>
<text class="label" font-weight="normal" x="10" y="160">json</text>
<g class="bar">
<rect fill="#ffffff" x="125" height="20" y="160" width="300"/>
<rect fill="#9BC53D" x="125" height="12" y="150" width="294"/>
<text class="value" x="425" font-family="monospace" text-anchor="end" y="160">830565</text>
</g>
<text class="label" font-weight="normal" x="10" y="180">protocol-buffers</text>
<g class="bar">
<rect fill="#ffffff" x="125" height="20" y="180" width="300"/>
<rect fill="#E55934" x="125" height="12" y="170" width="300"/>
<text class="value" x="425" font-family="monospace" text-anchor="end" y="180">847458</text>
</g>
<text class="label" font-weight="normal" x="10" y="200">protobufjs</text>
<g class="bar">
<rect fill="#ffffff" x="125" height="20" y="200" width="300"/>
<rect fill="#5BC0EB" x="125" height="12" y="190" width="222"/>
<text class="value" x="425" font-family="monospace" text-anchor="end" y="200">628931</text>
</g>
<text class="label" font-weight="normal" x="10" y="220">node-protobuf</text>
<g class="bar">
<rect fill="#ffffff" x="125" height="20" y="220" width="300"/>
<rect fill="#FDE74C" x="125" height="12" y="210" width="27"/>
<text class="value" x="425" font-family="monospace" text-anchor="end" y="220">76965</text>
</g>
<line class="level" x1="185" x2="185" y1="140" y2="230" stroke-width="1" stroke="silver"/>
<line class="level" x1="245" x2="245" y1="140" y2="230" stroke-width="1" stroke="silver"/>
<line class="level" x1="305" x2="305" y1="140" y2="230" stroke-width="1" stroke="silver"/>
<line class="level" x1="365" x2="365" y1="140" y2="230" stroke-width="1" stroke="silver"/>
<line class="level" x1="425" x2="425" y1="140" y2="230" stroke-width="1" stroke="silver"/>
</g>
<g class="testcase">
<text class="header" x="10" y="260">decodeencode</text>
<text class="label" font-weight="normal" x="10" y="280">json</text>
<g class="bar">
<rect fill="#ffffff" x="125" height="20" y="280" width="300"/>
<rect fill="#9BC53D" x="125" height="12" y="270" width="222"/>
<text class="value" x="425" font-family="monospace" text-anchor="end" y="280">188076</text>
</g>
<text class="label" font-weight="normal" x="10" y="300">protocol-buffers</text>
<g class="bar">
<rect fill="#ffffff" x="125" height="20" y="300" width="300"/>
<rect fill="#E55934" x="125" height="12" y="290" width="300"/>
<text class="value" x="425" font-family="monospace" text-anchor="end" y="300">253293</text>
</g>
<text class="label" font-weight="normal" x="10" y="320">protobufjs</text>
<g class="bar">
<rect fill="#ffffff" x="125" height="20" y="320" width="300"/>
<rect fill="#5BC0EB" x="125" height="12" y="310" width="48"/>
<text class="value" x="425" font-family="monospace" text-anchor="end" y="320">41766</text>
</g>
<text class="label" font-weight="normal" x="10" y="340">node-protobuf</text>
<g class="bar">
<rect fill="#ffffff" x="125" height="20" y="340" width="300"/>
<rect fill="#FDE74C" x="125" height="12" y="330" width="36"/>
<text class="value" x="425" font-family="monospace" text-anchor="end" y="340">31023</text>
</g>
<line class="level" x1="185" x2="185" y1="260" y2="350" stroke-width="1" stroke="silver"/>
<line class="level" x1="245" x2="245" y1="260" y2="350" stroke-width="1" stroke="silver"/>
<line class="level" x1="305" x2="305" y1="260" y2="350" stroke-width="1" stroke="silver"/>
<line class="level" x1="365" x2="365" y1="260" y2="350" stroke-width="1" stroke="silver"/>
<line class="level" x1="425" x2="425" y1="260" y2="350" stroke-width="1" stroke="silver"/>
</g>
</svg>